<?xml version="1.0" encoding="UTF-8"?>
<!DOCTYPE svg PUBLIC "-//W3C//DTD SVG 1.1//EN" "http://www.w3.org/Graphics/SVG/1.1/DTD/svg11.dtd">
<!-- Creator: CorelDRAW -->
<svg xmlns="http://www.w3.org/2000/svg" xml:space="preserve" width="512px" height="512px" version="1.1" style="shape-rendering:geometricPrecision; text-rendering:geometricPrecision; image-rendering:optimizeQuality; fill-rule:evenodd; clip-rule:evenodd"
viewBox="0 0 512 512"
 xmlns:xlink="http://www.w3.org/1999/xlink"
 xmlns:xodm="http://www.corel.com/coreldraw/odm/2003">
 <defs>
  <style type="text/css">
   <![CDATA[
    .fil0 {fill:#00CCFF}
    .fil1 {fill:#1B74B9}
    .fil2 {fill:#F9F9F9}
   ]]>
  </style>
 </defs>
 <g id="Layer_x0020_1">
  <metadata id="CorelCorpID_0Corel-Layer"/>
  <path class="fil0" d="M44 256c0,116.9 95.1,212 212,212 116.9,0 212,-95.1 212,-212 0,-116.9 -95.1,-212 -212,-212 -116.9,0 -212,95.1 -212,212z"/>
  <path class="fil1" d="M256 512c-141.92,0 -256,-114.08 -256,-256 0,-141.42 114.52,-256 256,-256 141.47,0 256,114.58 256,256 0,141.92 -114.08,256 -256,256zm0 -234c-1.8,0 -3.6,-0.7 -4.9,-2l-131 -130c-2.74,-2.72 -2.87,-7.13 0,-10l27 -27c2.7,-2.7 7.1,-2.7 9.9,0l99.1 98.1 99.1 -98.1c2.7,-2.7 7.2,-2.7 9.9,0l27 27c2.74,2.74 2.86,7.15 0,10l-131 130c-1.5,1.3 -3.3,2 -5.1,2zm-121.1 -137l121.1 120.1 121.1 -120.1 -17.1 -17.1 -99.1 98.1c-2.7,2.7 -7.1,2.7 -9.9,0l-99 -98.1 -17.1 17.1zm121.1 265c-1.8,0 -3.6,-0.7 -4.9,-2.1l-131 -131c-2.7,-2.7 -2.7,-7.2 0,-9.9l27 -27c2.7,-2.7 7.2,-2.7 9.9,0l99.1 99.1 99.1 -99.1c2.7,-2.7 7.2,-2.7 9.9,0l27 27c2.7,2.7 2.7,7.2 0,9.9l-131 131c-1.5,1.4 -3.3,2.1 -5.1,2.1zm-121.1 -138l121.1 121.1 121.1 -121.1 -17.1 -17.1 -99.1 99c-2.7,2.7 -7.2,2.7 -9.9,0l-99.1 -99 -17 17.1zm121.1 214c-125.11,0 -226,-101.33 -226,-226 0,-125.11 101.33,-226 226,-226 125.11,0 226,101.33 226,226 0,125.11 -101.33,226 -226,226zm0 -438c-116.9,0 -212,95.1 -212,212 0,116.9 95.1,212 212,212 116.9,0 212,-95.1 212,-212 0,-116.9 -95.1,-212 -212,-212zm0 -30c-133.4,0 -242,108.6 -242,242 0,133.4 108.6,242 242,242 133.4,0 242,-108.6 242,-242 0,-133.4 -108.6,-242 -242,-242z"/>
  <path class="fil2" d="M360 123.9l-99.1 98.1c-2.7,2.7 -7.1,2.7 -9.9,0l-99 -98.1 -17.1 17.1 121.1 120.1 121.1 -120.1 -17.1 -17.1z"/>
  <path class="fil2" d="M360 250.9l-99.1 99c-2.7,2.7 -7.2,2.7 -9.9,0l-99.1 -99 -17 17.1 121.1 121.1 121.1 -121.1 -17.1 -17.1z"/>
  <path class="fil2" d="M256 30c125.11,0 226,101.33 226,226 0,125.11 -101.33,226 -226,226 -125.11,0 -226,-101.33 -226,-226 0,-125.11 101.33,-226 226,-226zm-242 226c0,133.4 108.6,242 242,242 133.4,0 242,-108.6 242,-242 0,-133.4 -108.6,-242 -242,-242 -133.4,0 -242,108.6 -242,242z"/>
 </g>
</svg>
