<svg xmlns="http://www.w3.org/2000/svg" xmlns:xlink="http://www.w3.org/1999/xlink" width="912.155" height="936.533" viewBox="0 0 241.341 247.791" xmlns:v="https://vecta.io/nano"><style><![CDATA[.B{opacity:.998}.C{stroke-width:1.065}.D{fill:#00a547}.E{stroke:#00692d}.F{stroke-width:.665}.G{stroke:#806816}.H{fill:#f6eb86}.I{fill:#fff}.J{stroke:#bcbcbc}.K{fill:#dcdcdc}.L{fill:#00923f}.M{fill:#f0c22a}.N{fill:#f6ec87}.O{fill:#f2cd42}.P{fill-rule:evenodd}.Q{fill:#806816}.R{stroke-width:.265}.S{stroke-width:.656}]]></style><defs><linearGradient id="A" gradientUnits="userSpaceOnUse"><stop offset="0" stop-color="#f2cd42"/><stop offset="1" stop-color="#806816"/></linearGradient><linearGradient id="B" gradientUnits="userSpaceOnUse"><stop offset="0" stop-color="#f0c22a"/><stop offset=".473" stop-color="#f6ec87"/><stop offset="1" stop-color="#f0c22a"/></linearGradient><linearGradient xlink:href="#B" id="C" x1="100.902" y1="181.812" x2="109.098" y2="181.812"/><linearGradient xlink:href="#B" id="D" x1="98.947" y1="193.891" x2="111.096" y2="193.891"/><linearGradient xlink:href="#B" id="E" x1="98.947" y1="188.413" x2="111.096" y2="188.413"/><linearGradient xlink:href="#B" id="F" x1="98.947" y1="182.936" x2="111.096" y2="182.936"/><linearGradient xlink:href="#B" id="G" x1="98.947" y1="177.599" x2="111.096" y2="177.599"/><linearGradient xlink:href="#B" id="H" x1="98.947" y1="172.262" x2="111.096" y2="172.262"/><linearGradient xlink:href="#B" id="I" x1="98.947" y1="166.925" x2="111.096" y2="166.925"/><linearGradient xlink:href="#A" id="J" x1="-7.536" y1="174.896" x2="0.832" y2="192.536"/><linearGradient xlink:href="#A" id="K" x1="-7.536" y1="174.896" x2=".832" y2="192.536"/><path id="L" d="M105 12.904l-4.162 16.276-12.014 11.74L105 36.386l16.175 4.534-12.015-11.741z"/><path id="M" d="M105 12.904l-4.162 16.276L105 31.582l-16.175 9.339L105 36.386v-4.805l16.175 9.339-12.015-11.741-4.16 2.403z"/><path id="N" d="M40.955 12.904L36.793 29.18 24.78 40.921l16.175-4.534 16.175 4.534-12.015-11.741z"/><path id="O" d="M40.955 12.904L36.793 29.18l4.162 2.402-16.175 9.339 16.175-4.534v-4.805l16.175 9.339-12.015-11.741-4.16 2.403z"/><path id="P" d="M40.942 12.082c-.371.006-.692.259-.784.619l-4.104 16.053-11.849 11.579c-.268.263-.325.674-.137.999s.572.482.934.381l15.953-4.472 15.953 4.472c.362.101.746-.056.934-.381s.132-.736-.137-.999l-11.85-11.58-4.103-16.052c-.094-.369-.429-.624-.809-.619z"/><path id="Q" d="M169.045 12.904l-4.162 16.276-12.014 11.74 16.175-4.534 16.175 4.534-12.015-11.741z"/><path id="R" d="M169.045 12.904l-4.162 16.276 4.162 2.402-16.175 9.339 16.175-4.534v-4.805l16.175 9.339-12.015-11.741-4.16 2.403z"/><path id="S" d="M-6.437 200.334l17.327-5.219c-3.536-13.652-1.725-32.815-21.136-30.426-6.002.739-15.755 3.046-12.786 13.308 2.59-6.726 6.847-1.999 6.884-.344 1.618 16.506 5.179 22.276 9.712 22.681z"/><path id="T" d="M58.288 188.128c2.831-3.819-.306-7.689-.695-11.535.035 3.756-1.843 6.64.695 11.535z"/><path id="U" d="M48.594 94.447c4.712.63 7.757-4.836 10.935-7.037-3.27 1.848-7.878 2.448-10.935 7.037z"/><path id="V" d="M148.449 183.341c-.02 0-1.704 1.338-3.326 4.143l-3.561 6.463 10.551 8.34 2.912-1.48 5.426-3.098c1.319-.971 1.388-1.588 1.371-1.135s.243-.103-2.162-1.668c-4.419-5.319.742-5.217 1.275-10.193-.684-.197-3.031-.4-7.291.621a4.03 4.03 0 0 1-3.691-.977c-1.377-1.288-1.489-1.016-1.504-1.016z"/><path id="W" d="M140.91 182.452c-3.302 5.007-14.537 9.887-8.768 24.529 15.285 7.688 26.637.867 32.044-6.263-4.371-.654-6.976-1.896-13.987-1.67 3.564-1.998 2.797-5.681 3.027-8.976-3.251-.707-5.764.799-8.037 3.027.764-4.644-2.034-7.507-4.279-10.647z"/><path id="X" d="M136.788 188.43c-2.209 3.252-7.72 9.154-3.433 18.059 11.563 5.679 22.335 1.569 25.846-2.784-9.202-.427-11.341-4.443-18.009-3.026 1.382-6.441-2.712-9.739-4.404-12.249z"/><path id="Y" d="M137.722 193.741c4.84-7.547 8.545-20.846 16.311-13.58 19.178-4.598 10.642 9.174 9.152 10.111 11.771 7.662-5.834 12.232-9.964 15.721z"/></defs><g transform="translate(15.67 -12.082)"><g class="P"><use xlink:href="#L"  class="B M"/><use xlink:href="#M"  class="B N"/><path d="M104.987 12.082c-.371.006-.692.259-.784.619l-4.104 16.053L88.25 40.332c-.268.263-.325.674-.137.999s.572.482.934.381L105 37.241l15.953 4.472c.362.101.746-.056.934-.381s.132-.736-.137-.999l-11.85-11.58-4.103-16.052c-.094-.369-.429-.624-.809-.619z"  class="B Q"/><use xlink:href="#L"  class="B M"/><use xlink:href="#M"  class="B N"/><use xlink:href="#N"  class="B M"/><use xlink:href="#O"  class="B N"/><use xlink:href="#P"  class="B Q"/><use xlink:href="#N"  class="B M"/><use xlink:href="#O"  class="B N"/><use xlink:href="#Q"  class="B M"/><use xlink:href="#R"  class="B N"/><use xlink:href="#P" x="128.09"  class="B Q"/><use xlink:href="#Q"  class="B M"/><use xlink:href="#R"  class="B N"/></g><path d="M224.989 192.793l-1.096-5.532-4.65-1.007-1.137 6.196c1.915-2.923 4.433-1.021 6.884.344z"/><use xlink:href="#S" fill="url(#K)" stroke="#000" transform="matrix(-1 0 0 1 201.95612 14.795666)" class="R"/><path d="M205.575 204.692c2.142 3.165 2.996 6.737 2.818 10.438-5.937 2.537-12.352 3.878-20.771.209zm-220.564-11.899l1.096-5.532 4.65-1.007 1.137 6.196c-1.915-2.923-4.433-1.021-6.884.344z"/><use xlink:href="#S" fill="url(#J)" stroke="#000" transform="translate(8.044 14.796)" class="R"/><path d="M4.425 204.692c-2.142 3.165-2.996 6.737-2.818 10.438 5.937 2.537 12.352 3.878 20.771.209z"/><path d="M205.575 204.692l-18.668-7.85A105.406 115.738 0 0 1 105 239.733a105.406 115.738 0 0 1-81.907-42.891l-.001.001-18.667 7.85c3.469 5.1 7.262 9.954 11.389 14.486 22.991 25.245 55.893 40.373 89.185 40.373s66.195-15.128 89.186-40.373c4.127-4.532 7.921-9.386 11.389-14.486z" opacity=".971" stroke-width=".645"  class="D E P"/><g transform="matrix(.999993 -.017347 .016124 .9295 -3.713974 18.496081)"><path d="M21.127 209.528q-.596.596-.721 1.116-.226.949.682 2.148.544.719 1.041 1.047.947.621 1.771-.003.481-.364.426-.986-.062-.617-.548-1.669l-.548-1.203q-.805-1.776-.842-2.66-.071-1.491 1.36-2.574 1.305-.988 2.888-.692 1.582.296 2.974 2.135 1.163 1.536 1.164 3.236.012 1.702-1.497 2.927l-1.477-1.951q.837-.716.667-1.708-.115-.659-.649-1.365-.594-.785-1.265-1.013-.671-.229-1.238.201-.521.394-.429 1.05.053.426.556 1.57l.865 1.979q.57 1.301.552 2.195-.027 1.389-1.326 2.372-1.332 1.008-2.989.655-1.645-.352-3.052-2.211-1.437-1.899-1.397-3.64.047-1.746 1.563-2.894zm8.507-3.338zm-.049 12.358l2.109 2.262 2.47-4.383zm5.653-5.055l1.962 2.105-5.971 11.467-1.883-2.02 1.297-2.283-3.061-3.284-2.408 1.091-1.815-1.947zm.97 1.04zm10.031 9.366l-1.427 1.619-2.735-2.411-6.632 7.524-1.923-1.695 6.632-7.524-2.748-2.422 1.427-1.619z"/><path d="M52.184 228.176l2.332 1.7-7.775 3.745-2.699 3.701-2.058-1.5 2.699-3.701 1.075-8.631 2.425 1.768-1.083 5.78zm-2.044-1.491zm2.373 10.636l2.666 1.567 1.119-4.905zm3.978-6.457l2.48 1.458-2.456 12.694-2.381-1.4.593-2.558-3.87-2.275-1.997 1.732-2.295-1.349zm1.226.721zm8.163 12.535l2.868 1.155.381-5.017zm2.979-6.974l2.669 1.075-.55 12.917-2.562-1.032.207-2.617-4.165-1.677-1.718 2.009-2.47-.995zm1.319.531zm7.353 4.853l-2.114 7.668 2.264.624q1.738.479 2.896-1.046.634-.837.992-2.137.494-1.793.192-2.906-.292-1.118-1.966-1.58zm3.241-1.302q1.088.317 1.747.756 1.123.747 1.59 2.042.372 1.046.314 2.128-.058 1.082-.313 2.006-.646 2.343-2.035 3.71-1.88 1.84-4.542 1.107l-5.062-1.395 3.239-11.749zm3.516 13.459l1.885-12.041 2.491.39-.719 4.591 4.705.737.719-4.591 2.5.391-1.885 12.041-2.5-.391.842-5.375-4.705-.737-.842 5.375zm14.456 1.828l-2.523-.195.939-12.151 2.523.195zm-.303-12.488zm8.31.656l2.029 6.869.463 1.919.241-1.92.948-7.09 2.682-.162 1.864 6.879.488 1.917.259-1.888 1.202-7.138 2.583-.156-2.693 12.372-2.426.146-1.897-7.026-.571-2.326-.288 2.378-1.041 7.203-2.36.142-4.182-11.958zm17.297 10.556l-2.5.391-1.886-12.041 2.5-.391zm-3.172-12.082zm3.625 6.051q-.74-3.105.524-5.182 1.099-1.809 3.335-2.342 2.992-.713 4.843.919 1.027.92 1.348 2.016l-2.477.591q-.445-.795-.926-1.139-.86-.611-2.187-.295-1.351.322-1.871 1.602-.521 1.272-.046 3.266.475 1.995 1.534 2.796 1.064.792 2.335.489 1.303-.311 1.783-1.326.269-.549.299-1.525l2.453-.585q.14 2.015-.897 3.546-1.03 1.529-3.097 2.022-2.558.61-4.413-.682-1.857-1.3-2.541-4.171zm3.754-7.644zm11.579 4.907l2.907-1.054-3.065-3.989zm-2.437-7.181l2.705-.981 8.213 9.985-2.596.942-1.593-2.087-4.221 1.531.061 2.643-2.503.908zm1.337-.485zm5.596-2.108l2.243-1.116 2.236 4.493 1.976-6.589 2.946-1.466-2.236 6.718 7.894 4.079-2.931 1.458-5.74-3.091-.532 1.659 1.816 3.649-2.243 1.116zm15.788 1.17q.548.64 1.057.805.928.298 2.195-.515.758-.487 1.124-.957.692-.896.134-1.766-.326-.508-.95-.5-.62.014-1.707.418l-1.242.453q-1.833.665-2.717.634-1.492-.044-2.461-1.554-.884-1.378-.467-2.932.417-1.555 2.358-2.801 1.621-1.041 3.316-.91 1.697.119 2.803 1.719l-2.06 1.322q-.65-.89-1.651-.797-.666.064-1.411.542-.828.531-1.108 1.183-.28.651.104 1.25.353.55 1.014.508.429-.02 1.608-.433l2.04-.71q1.341-.467 2.231-.381 1.383.134 2.263 1.505.902 1.406.422 3.03-.478 1.613-2.44 2.873-2.004 1.286-3.737 1.112-1.738-.182-2.765-1.782zm-2.671-8.739zm12.299 1.024l2.406-1.942-4.196-2.776zm-4.639-5.999l2.239-1.807 11.013 6.774-2.149 1.734-2.185-1.456-3.494 2.82.917 2.479-2.072 1.672zm1.107-.893zm4.561-3.764l1.877-1.9 9.463 2.527-6.052-5.98 1.668-1.688 8.67 8.565-1.79 1.812-9.656-2.543 6.158 6.084-1.668 1.688zm3.527-3.605zm12.109-2.131l1.913-2.43-4.709-1.771zm-5.86-4.813l1.78-2.261 12.246 4.147-1.708 2.17-2.454-.932-2.777 3.528 1.447 2.212-1.647 2.092zm.88-1.117z"/></g><path d="M57.899 138.045l6.555 10.329h17.551l6.555-10.329z" class="C G O"/><path d="M60.084 139.435c4.203 1.507 6.958 2.763 13.105 2.763s8.76-1.257 13.385-2.763c-8.832.355-17.658.174-26.49 0z" class="H"/><g class="G"><path d="M57.899 138.045l15.33-32.476 15.33 32.476M73.23 105.57v-4.867" fill="none" class="C"/><path d="M94.298 95.539c-3.016 0-5.19 1.667-7.981 2.315-5.004 1.568-12.684 1.016-21.067 1.016v1.833H105h39.752V98.87c-8.383 0-16.063.551-21.067-1.016-2.791-.648-4.965-2.315-7.981-2.315-4.344 0-4.404 3.178-10.703 3.178s-6.359-3.178-10.702-3.178z" class="F O"/></g><path d="M86.482 99.158c2.546-.707 4.94-2.185 7.514-2.212 2.938-.048 3.949 1.349 5.924 2.024-4.103-1.092-8.633-.871-13.438.188z" class="H"/><path d="M152.101 138.045l-6.555 10.329h-17.551l-6.555-10.329z" class="C G O"/><path d="M149.916 139.435c-4.203 1.507-6.958 2.763-13.105 2.763s-8.76-1.257-13.385-2.763c8.832.355 17.658.174 26.49 0z" class="H"/><path d="M152.101 138.045l-15.33-32.476-15.33 32.476m15.329-32.475v-4.867" fill="none" class="C G"/><path d="M123.518 99.158c-2.546-.707-4.94-2.185-7.514-2.212-2.938-.048-3.949 1.349-5.924 2.024 4.103-1.092 8.633-.871 13.438.188z" class="H"/><path d="M105 61.236l-5.616 17.065 2.037 78.644H105h3.579l2.037-78.644z" stroke-width=".865" class="B G O"/><path d="M109.762 78.301l-2.037 77.353H105V64.957z" class="H"/><g class="G"><path d="M105 155.654V64.957" fill="none" stroke-width=".465"/><g stroke-width="1.053" class="P"><path d="M109.098 161.939v35.017a4.09 4.09 0 1 1-8.197 0v-35.017z" fill="url(#C)"  class="B"/><rect width="12.008" height="2.809" x="99.087" y="192.697" ry="1.404" fill="url(#D)"  class="B"/><rect width="12.008" height="2.809" x="99.087" y="187.22" ry="1.404" fill="url(#E)"  class="B"/><rect width="12.008" height="2.809" x="99.087" y="181.742" ry="1.404" fill="url(#F)"  class="B"/><rect width="12.008" height="2.809" x="99.087" y="176.405" ry="1.404" fill="url(#G)"  class="B"/><rect width="12.008" height="2.809" x="99.087" y="171.068" ry="1.404" fill="url(#H)"  class="B"/><rect width="12.008" height="2.809" x="99.087" y="165.731" ry="1.404" fill="url(#I)"  class="B"/></g><path d="M105 155.654c-7.406 0-11.706 2.354-13.533 6.525h2.781c0-2.738 6.735-2.343 6.654-.24H105h4.098c-.081-2.104 6.654-2.498 6.654.24h2.781c-1.827-4.171-6.127-6.525-13.533-6.525z" stroke-width=".965" class="O"/></g><path d="M104.701 157.188c-3.693 0-5.946.848-8.019 1.515 2.175-.583 6.689-.441 8.019 1.862 1.33-2.303 5.844-2.445 8.02-1.862-2.073-.667-4.326-1.515-8.02-1.515z" class="H"/><path d="M69.673 208.724l7.381.295 6.347 3.69c10.888 21.112 27.885-10.262 40.151-15.204l-8.709.148c-7.676 6.298-14.005 18.321-23.028 18.894-5.805-1.031-8.316-6.116-10.333-11.809 1.846-10.693-6.003-14.171-9.004-21.256 2.509 7.135.809 16.426 7.528 21.404l2.362 5.609-4.133-2.952-8.857-10.185c3.184-8.165-4.454-14.166-7.381-21.109 2.017 7.233-1.727 11.051 6.052 21.699.645 2.25 3.008 4.286 5.166 6.347l-9.168-7.112c-1.676-1.979-2.816-3.891-3.379-5.73 3.127-10.324-2.237-13.799-3.365-20.691.654 6.958-5.024 13.503 1.983 20.876l1.044 2.192-6.889-6.785-1.357-6.68c5.148-7.861-1.67-14.126-2.505-21.189.348 6.993-3.973 14.987 1.044 20.98l.626 4.071-4.906-6.576-2.923-11.377c6.165-5.132 2.101-13.495 3.131-20.249-1.456 7.023-8.508 13.136-4.279 21.084l1.148 5.636c-1.401-2.16-4.509-7.374-5.115-11.899l2.088-8.246c6.396-4.972 3.775-13.935 4.488-21.293-2.357 6.917-8.378 13.079-6.158 21.189l-1.566 5.741c-.83-2.06-1.636-4.308-2.192-8.559l2.401-10.647c7.405-2.291 6.124-12.258 8.141-19.31-3.236 6.329-9.927 9.085-9.498 19.206l-1.566 5.741-.418-10.542 3.236-8.663c7.842-.908 8.197-11.549 12.212-17.431-5.189 5.588-13.518 10.946-13.569 16.909l-1.67 4.488c.041-3.27.218-6.541 1.357-9.812l5.005-7.355c4.851 1.155 12.842-11.867 14.201-16.548-2.725 1.895-17.066 9.564-15.252 15.743l-2.91 3.462 1.879-7.306 9.081-10.647c7.92-.01 10.798-8.422 16.074-12.838-5.787 4.058-14.157 3.273-17.118 12.63l-6.367 6.367c1.597-4.216 2.87-8.288 6.158-13.256l11.586-6.993c9.005.805 11.427-8.396 17.118-12.63-6.124 3.431-14.438 4.075-17.849 10.96l-8.246 5.219c5.388-6.561 10.03-13.495 18.788-18.37 9.232 2.517 20.031-5.928 30.274-10.485-10.46 2.068-21.649-.527-30.851 9.595-8.202 3.575-13.156 9.991-18.304 16.237l.886-4.281c8.96-3.966 9.609-10.877 14.171-16.68-5.459 5.503-15.601 7.26-15.795 16.975l-1.771 8.119c-3.193 4.014-6 10.01-7.425 14.417.157-2.516.572-5.222.853-8.357 7.397-6.246 4.165-13.735 6.425-20.968-2.873 6.807-10.53 14.092-8.119 20.371-.425 4.469-.877 8.951-1.033 13.285l-2.805 10.333-2.362-7.676c4.156-7.033 1.673-14.368 2.509-21.551-1.448 7.397-9.795 16.425-4.133 22.142l3.543 10.038c-1.061 3.789-1.224 7.577-1.329 11.366l-3.1-6.347c2.122-8.123-2.755-13.58-4.133-20.371.955 7.294-4.786 17.213 2.952 21.847l3.838 8.414 1.181 11.661-3.1-2.657c2.58-9.26-6.343-13.407-9.595-20.075 2.731 6.623.845 15.067 8.414 19.78l4.428 7.085 1.771 6.643-2.067-1.624c-.03-6.143-9.719-11.319-16.09-16.828 4.849 5.962 5.129 13.621 14.614 17.861l4.281 3.986 5.732 12.947-5.879-5.714c-2.668-6.812-9.238-9.46-13.876-14.171 4.233 5.69 3.573 13.927 13.728 16.533l8.857 7.528 5.462 7.823-7.085-2.509c-1.979-6.707-11.351-7.992-17.271-11.809 4.908 4.891 7.516 12.564 16.237 12.842l11.219 5.019 7.085 7.233c-3.849-.071-4.452-.392-6.643-.59-3.73-5.271-12.649-5.848-19.042-8.709 6.249 3.297 9.145 11.414 18.747 9.89 3.05 1.036 6.112 1.945 9.3 1.476 4.189 3.06 7.39 6.34 12.695 9.152-1.821.105-3.641.272-5.462-.295-6.001-4.942-14.284-3.724-21.52-5.332 6.169 2.777 13.415 10.436 21.52 7.103z" class="G O S"/><g class="H"><path d="M54.543 203.558c3.437 1.434 5.773 3.969 11.366 3.247-1.552-2.62-6.83-2.679-11.366-3.247zm-14.228-13.885c2.815 1.789 4.439 4.308 9.587 4.67-.905-2.454-5.626-3.413-9.587-4.67zm-8.489-14.723c2.435 2.28 3.565 5.055 8.557 6.365-.435-2.579-4.897-4.396-8.557-6.365zm-5.536-16.532c1.971 2.692 2.566 5.628 7.228 7.841.051-2.615-3.997-5.228-7.228-7.841zm-3.874-14.189c2.227 3.158 2.9 6.602 8.168 9.198.057-3.068-4.516-6.132-8.168-9.198zm.676-14.323c1.358 3.047 1.32 6.043 5.409 9.19.602-2.545-2.803-5.954-5.409-9.19zm2.936-18.893c-.032 3.349-1.307 5.971 1.092 10.745 1.598-1.949-.072-6.617-1.092-10.745zm7.096-16.905c-1.175 3.137-3.268 5.166-2.644 10.472 2.168-1.286 2.192-6.244 2.644-10.472zm10.58-15.386c-1.698 3.857-4.568 5.472-4.382 12.288 2.672-1.393 3.419-6.964 4.382-12.288zm16.024-12.084c-3.332 2.58-6.625 2.631-9.713 8.71 3.012.05 6.326-4.49 9.713-8.71zm19.909 134.558c1.565-4.281-2.7-7.267-4.281-10.85 1.208 3.575.279 6.75 4.281 10.85zm-12.03-7.571c2.013-4.09-1.909-7.514-3.098-11.244.819 3.684-.443 6.741 3.098 11.244z"/><use xlink:href="#T"/><use xlink:href="#T" x="-7.676" y="-10.85"/><path d="M42.892 163.64c3.681-3.008 1.588-7.529 2.154-11.353-.887 3.65-3.415 5.985-2.154 11.353zm-3.31-13.825c4.039-2.507 2.919-8.662 3.975-12.381-1.352 3.504-4.53 6.895-3.975 12.381zm-1.981-14.31c4.395-1.811 4.298-8.067 5.95-11.562-1.907 3.235-5.598 6.06-5.95 11.562zm-.32-12.717c4.71-.644 6.193-6.723 8.673-9.689-2.662 2.65-6.945 4.452-8.673 9.689zm3.833-14.148c4.752-.124 6.893-6.004 9.682-8.68-2.936 2.342-7.391 3.665-9.682 8.68z"/><use xlink:href="#U"/><use xlink:href="#U" x="10.185" y="-13.95"/><path d="M71.518 66.13c.44-4.394 13.526-6.383 17.861-6.274-.09.317-6.787 3.702-17.861 6.274z"/></g><path d="M115.064 198.539c-4.996 4.428-8.103 8.857-12.104 13.285 5.059-4.38 9.619-9.509 15.426-12.768-.781-.247-.866-.656-3.321-.517z" fill="#f6ea83"/><path d="M135.513 205.321c-2.748 5.328-15.097 14.702-18.449 14.613-9.929-.264-21.744-18.733-30.914-22.428 15.502-3.223 20.936 17.846 31.737 19.042 3.14-.558 14.012-11.315 15.668-13.7z" class="D E S"/><path d="M94.638 198.539c4.996 4.428 8.103 8.857 12.104 13.285-5.059-4.38-9.619-9.509-15.425-12.768.781-.247.866-.656 3.321-.517z" fill="#00b14d"/><g transform="matrix(-.207802 -.515124 .680579 -.177061 38.31535 180.02728)"><path d="M137.722 193.741c9.668-23.057 16.792-7.72 43.707-32.945-20.505 26.652-2.558 32.049-28.208 45.197z" class="F I J"/><use xlink:href="#V" class="K"/><use xlink:href="#W" class="C D E"/><use xlink:href="#X" class="L"/></g><g transform="matrix(-.12343 -.601612 .805866 -.077184 18.323565 183.7845)"><use xlink:href="#Y" class="F I J"/><use xlink:href="#V" class="K"/><use xlink:href="#W" class="C D E"/><use xlink:href="#X" class="L"/></g><g transform="matrix(.132129 -.721189 .809131 .197542 -4.710055 165.06497)"><use xlink:href="#Y" class="F I J"/><use xlink:href="#V" class="K"/><use xlink:href="#W" class="C D E"/><use xlink:href="#X" class="L"/></g><g transform="matrix(.420494 -.744341 .829064 .528016 -42.464427 130.71705)"><use xlink:href="#Y" class="F I J"/><use xlink:href="#V" class="K"/><use xlink:href="#W" class="C D E"/><use xlink:href="#X" class="L"/></g><g transform="matrix(.658046 -.634927 .600421 .695864 -33.040945 109.70785)"><use xlink:href="#Y" class="F I J"/><use xlink:href="#V" class="K"/><use xlink:href="#W" class="C D E"/><use xlink:href="#X" class="L"/></g><g transform="rotate(350.338 41.551 64.598)"><use xlink:href="#Y" class="F I J"/><use xlink:href="#V" class="K"/><use xlink:href="#W" class="C D E"/><use xlink:href="#X" class="L"/></g><use xlink:href="#Y" class="F I J"/><use xlink:href="#V" class="K"/><use xlink:href="#W" class="C D E"/><use xlink:href="#X" class="L"/></g></svg>